<?xml version="1.0" encoding="UTF-8" standalone="no"?>
<svg
   version="1.0"
   width="12pt"
   height="12pt"
   viewBox="0 0 12 12"
   preserveAspectRatio="xMidYMid"
   id="svg1"
   sodipodi:docname="pluginIcon.svg"
   inkscape:version="1.3.2 (091e20e, 2023-11-25)"
   xmlns:inkscape="http://www.inkscape.org/namespaces/inkscape"
   xmlns:sodipodi="http://sodipodi.sourceforge.net/DTD/sodipodi-0.dtd"
   xmlns="http://www.w3.org/2000/svg"
   xmlns:svg="http://www.w3.org/2000/svg">
  <defs
     id="defs1" />
  <sodipodi:namedview
     id="namedview1"
     pagecolor="#ffffff"
     bordercolor="#000000"
     borderopacity="0.25"
     inkscape:showpageshadow="2"
     inkscape:pageopacity="0.0"
     inkscape:pagecheckerboard="0"
     inkscape:deskcolor="#d1d1d1"
     inkscape:document-units="pt"
     inkscape:zoom="11.432342"
     inkscape:cx="14.782623"
     inkscape:cy="15.832276"
     inkscape:window-width="1600"
     inkscape:window-height="847"
     inkscape:window-x="51"
     inkscape:window-y="25"
     inkscape:window-maximized="1"
     inkscape:current-layer="svg1" />
  <g
     transform="matrix(0.01738415,0,0,-0.01738415,0.43490258,11.599172)"
     fill="#FFFFFF"
     stroke="none"
     id="g1">
    <path
       d="M 223,622 C 128,588 79,544 29,450 -5,383 -5,266 31,189 63,121 114,69 183,33 258,-6 371,-6 451,31 c 68,32 120,83 156,152 39,75 39,188 2,268 C 540,599 369,674 223,622 Z M 420,484 c 15,-37 12,-54 -7,-54 -10,0 -63,-11 -118,-24 -55,-14 -104,-21 -108,-17 -4,4 -10,24 -14,44 -5,35 -5,36 37,47 67,18 122,28 163,29 32,1 39,-3 47,-25 z m 54,-106 c 9,-12 16,-32 16,-43 0,-17 -10,-22 -67,-33 -38,-7 -116,-29 -176,-49 -59,-20 -110,-34 -113,-30 -3,3 -8,23 -11,45 l -5,39 58,21 c 96,34 200,61 276,71 4,1 14,-9 22,-21 z m 6,-127 c 24,-45 14,-59 -60,-81 -38,-11 -87,-27 -108,-34 -49,-18 -64,-8 -66,40 l -1,38 95,28 c 115,33 126,33 140,9 z"
       id="path1"
       style="fill:#999db4;fill-opacity:1" />
  </g>
</svg>