<?xml version="1.0" standalone="no"?>
<!DOCTYPE svg PUBLIC "-//W3C//DTD SVG 20010904//EN"
 "http://www.w3.org/TR/2001/REC-SVG-20010904/DTD/svg10.dtd">
<svg version="1.0" xmlns="http://www.w3.org/2000/svg"
 width="64.000000pt" height="64.000000pt" viewBox="0 0 64.000000 64.000000"
 preserveAspectRatio="xMidYMid meet">

<g transform="translate(0.000000,64.000000) scale(0.100000,-0.100000)"
fill="#000000" stroke="none">
<path d="M223 622 c-95 -34 -144 -78 -194 -172 -34 -67 -34 -184 2 -261 32
-68 83 -120 152 -156 75 -39 188 -39 268 -2 68 32 120 83 156 152 39 75 39
188 2 268 -69 148 -240 223 -386 171z m197 -138 c15 -37 12 -54 -7 -54 -10 0
-63 -11 -118 -24 -55 -14 -104 -21 -108 -17 -4 4 -10 24 -14 44 -5 35 -5 36
37 47 67 18 122 28 163 29 32 1 39 -3 47 -25z m54 -106 c9 -12 16 -32 16 -43
0 -17 -10 -22 -67 -33 -38 -7 -116 -29 -176 -49 -59 -20 -110 -34 -113 -30 -3
3 -8 23 -11 45 l-5 39 58 21 c96 34 200 61 276 71 4 1 14 -9 22 -21z m6 -127
c24 -45 14 -59 -60 -81 -38 -11 -87 -27 -108 -34 -49 -18 -64 -8 -66 40 l-1
38 95 28 c115 33 126 33 140 9z"/>
</g>
</svg>
