<?xml version="1.0" encoding="UTF-8" standalone="no"?>
<!-- Copyright 2000-2023 JetBrains s.r.o. and contributors. Use of this source code is governed by the Apache 2.0 license. -->

<svg
   width="17"
   height="16"
   viewBox="0 0 17 16"
   fill="none"
   version="1.1"
   id="svg3"
   sodipodi:docname="scanIaC_dark.svg"
   inkscape:version="1.3.2 (091e20e, 2023-11-25)"
   xmlns:inkscape="http://www.inkscape.org/namespaces/inkscape"
   xmlns:sodipodi="http://sodipodi.sourceforge.net/DTD/sodipodi-0.dtd"
   xmlns="http://www.w3.org/2000/svg"
   xmlns:svg="http://www.w3.org/2000/svg">
  <defs
     id="defs3" />
  <sodipodi:namedview
     id="namedview3"
     pagecolor="#ffffff"
     bordercolor="#000000"
     borderopacity="0.25"
     inkscape:showpageshadow="2"
     inkscape:pageopacity="0.0"
     inkscape:pagecheckerboard="0"
     inkscape:deskcolor="#d1d1d1"
     inkscape:zoom="14.75"
     inkscape:cx="8.5084746"
     inkscape:cy="8"
     inkscape:window-width="1600"
     inkscape:window-height="847"
     inkscape:window-x="51"
     inkscape:window-y="25"
     inkscape:window-maximized="0"
     inkscape:current-layer="svg3" />
  <text
     xml:space="preserve"
     style="fill:#ced0d6;fill-opacity:1;stroke:#ced0d6;stroke-width:1;stroke-dasharray:none;stroke-opacity:1"
     x="0.48632812"
     y="11.410156"
     id="text4"><tspan
       sodipodi:role="line"
       id="tspan4"
       x="0.48632812"
       y="11.410156">{</tspan></text>
  <text
     xml:space="preserve"
     style="fill:#ced0d6;fill-opacity:1;stroke:#ced0d6;stroke-width:1;stroke-dasharray:none;stroke-opacity:1"
     x="-16.521484"
     y="-4.5898438"
     id="text4-0"
     transform="scale(-1)"><tspan
       sodipodi:role="line"
       id="tspan4-2"
       x="-16.521484"
       y="-4.5898438">{</tspan></text>
  <path
     fill-rule="evenodd"
     clip-rule="evenodd"
     d="M9 9.50215C9 8.32441 10.2951 7.60608 11.2942 8.22967L15.2962 10.7275C16.2372 11.3149 16.2372 12.6851 15.2962 13.2725L11.2942 15.7703C10.2951 16.3939 9 15.6756 9 14.4978V9.50215ZM10.7647 9.07799C10.4317 8.87013 10 9.10957 10 9.50215V14.4978C10 14.8904 10.4317 15.1298 10.7647 14.922L14.7667 12.4241C15.0804 12.2284 15.0804 11.7716 14.7667 11.5758L10.7647 9.07799Z"
     fill="#57965C"
     id="path1" />
  <path
     d="M10 9.50217C10 9.10959 10.4317 8.87015 10.7647 9.07801L14.7667 11.5758C15.0804 11.7716 15.0804 12.2284 14.7667 12.4242L10.7647 14.922C10.4317 15.1299 10 14.8904 10 14.4978V9.50217Z"
     fill="#253627"
     id="path2" />
  <text
     xml:space="preserve"
     style="fill:#ced0d6;fill-opacity:1;stroke:#57965c"
     x="-8.6101694"
     y="9.2881355"
     id="text3"><tspan
       sodipodi:role="line"
       id="tspan3"
       x="-8.6101694"
       y="9.2881355" /></text>
</svg>
